<?xml version="1.0" encoding="utf-8"?>
<svg id="master-artboard" viewBox="0 0 1400 980" xmlns="http://www.w3.org/2000/svg" width="1400px" height="980px" version="1.1" style="shape-rendering:geometricPrecision; text-rendering:geometricPrecision; image-rendering:optimizeQuality; fill-rule:evenodd; clip-rule:evenodd"><rect id="ee-background" x="0" y="0" width="1400" height="980" style="fill: white; fill-opacity: 0; pointer-events: none;"/><g transform="matrix(1.9600000381469727, 0, 0, 1.9600000381469727, 79.0909173653825, -145.17483612139736)"><defs><linearGradient id="gradient-0" gradientUnits="objectBoundingBox" x1="0.5" y1="0" x2="0.5" y2="1">
                <stop offset="0" style="stop-color: #e8edff"/>
                <stop offset="1" style="stop-color: #829dff"/>
              </linearGradient><linearGradient id="gradient-1" gradientUnits="objectBoundingBox" x1="0.5" y1="0" x2="0.5" y2="1">
                <stop offset="0" style="stop-color: #e7eeef"/>
                <stop offset="1" style="stop-color: #aac3c6"/>
              </linearGradient></defs><g id="BACKGROUND"/><g id="OBJECTS"><g class="cls-2" style="opacity: 0.2;" transform="matrix(1.089015007019043, 0, 0, 1.089015007019043, 49.72036978820131, 64.2711006149739)"><path class="cls-3" d="M75,322.31C28.57,287.23-2,235,21.51,176.42,57.94,85.68,169,40.42,263.57,35.91,304,34,316.22,48.74,334.21,80.69c21.26,37.75,81.26,33.06,114.85,58.62,25.35,19.29,37.23,53.59,37.54,84.13.76,74.14-62.74,126.89-131.82,144.31-64.43,16.25-135.71,11.29-199.37-6A240.92,240.92,0,0,1,75,322.31Z" style="fill: teal;"/></g><g class="cls-4" style="opacity: 0.1;" transform="matrix(1.089015007019043, 0, 0, 1.089015007019043, 49.72036978820131, 55.8785224899739)"><path d="M 434.339996 403.089996 A 184.339996 12.29 0 0 1 250 415.379996 A 184.339996 12.29 0 0 1 65.660004 403.089996 A 184.339996 12.29 0 0 1 250 390.799996 A 184.339996 12.29 0 0 1 434.339996 403.089996 Z" class="cls-3" style="fill: teal;"/></g><path class="cls-5" d="M282.62,352.82H227a24.76,24.76,0,0,1,8.67,18.85h0a24.85,24.85,0,0,1-24.84,24.85H193.72a3,3,0,0,0-3,3h0a3,3,0,0,0,3,3h88.9a24.84,24.84,0,0,0,24.84-24.84h0A24.84,24.84,0,0,0,282.62,352.82Z" style="fill: rgb(118, 123, 145);" transform="matrix(1.089015007019043, 0, 0, 1.089015007019043, 49.72036978820131, 55.8785224899739)"/><path class="cls-6" d="M282.86,405.2H192.3a2.7,2.7,0,0,1,0-5.39h90.56a22.15,22.15,0,0,0,0-44.3,2.7,2.7,0,1,1,0-5.39,27.54,27.54,0,0,1,0,55.08Z" style="fill: rgb(100, 105, 123);" transform="matrix(1.089015007019043, 0, 0, 1.089015007019043, 49.72036978820131, 55.8785224899739)"/><g class="cls-7" style="opacity: 0.15;" transform="matrix(1.089015007019043, 0, 0, 1.089015007019043, 49.72036978820131, 55.8785224899739)"><path d="M235.45,368.73H308.9a27.59,27.59,0,0,0-26-18.61,2.7,2.7,0,0,0-2.7,2.7H227A24.81,24.81,0,0,1,235.45,368.73Z"/></g><path d="M 108.709998 142.669998 H 400.039987 A 12.36 12.36 0 0 1 412.399986 155.029998 V 346.39 A 12.36 12.36 0 0 1 400.039987 358.75 H 108.709998 A 12.36 12.36 0 0 1 96.349998 346.39 V 155.029998 A 12.36 12.36 0 0 1 108.709998 142.669998 Z" class="cls-8" style="fill: rgb(100, 105, 123);" transform="matrix(1.0890150070190432, 0, 0, 1.0890150070190432, 45.638736724853516, 55.87852120905903)"/><path d="M 99.959998 142.669998 H 391.289987 A 12.36 12.36 0 0 1 403.649986 155.029998 V 346.39 A 12.36 12.36 0 0 1 391.289987 358.75 H 99.959998 A 12.36 12.36 0 0 1 87.599998 346.39 V 155.029998 A 12.36 12.36 0 0 1 99.959998 142.669998 Z" class="cls-9" style="fill: rgb(118, 123, 145);" transform="matrix(1.089015007019043, 0, 0, 1.089015007019043, 49.72036978820131, 55.8785224899739)"/><path d="M 100.269997 152.869995 H 391.18 V 316.639999 H 100.269997 V 152.869995 Z" class="cls-1" style="fill: rgb(255, 255, 255);" transform="matrix(1.089015007019043, 0, 0, 1.089015007019043, 49.72036978820131, 55.8785224899739)"/><path class="cls-5" d="M87.6,316.46v29.93A12.36,12.36,0,0,0,100,358.75H391.29a12.36,12.36,0,0,0,12.36-12.36V316.46Z" style="fill: rgb(118, 123, 145); fill-opacity: 1;" transform="matrix(1.089015007019043, 0, 0, 1.089015007019043, 49.72036978820131, 55.8785224899739)"/><path d="M 253.579996 336.640015 A 7.85 7.85 0 0 1 245.729996 344.490015 A 7.85 7.85 0 0 1 237.879996 336.640015 A 7.85 7.85 0 0 1 245.729996 328.790015 A 7.85 7.85 0 0 1 253.579996 336.640015 Z" class="cls-6" style="fill: rgb(166, 163, 173);" transform="matrix(1.089015007019043, 0, 0, 1.089015007019043, 49.72036978820131, 55.8785224899739)"/><path d="M 110.529999 165.690002 H 391.320007 V 311.619995 H 110.529999 V 165.690002 Z" class="cls-10" style="fill: rgb(213, 209, 222);" transform="matrix(1.089015007019043, 0, 0, 1.089015007019043, 49.72036978820131, 55.8785224899739)"/><path d="M 99.940002 152.979996 H 391.320007 V 172.619995 H 99.940002 V 152.979996 Z" class="cls-11" style="fill: rgb(74, 78, 105);" transform="matrix(1.089015007019043, 0, 0, 1.089015007019043, 49.72036978820131, 55.8785224899739)"/><path d="M 360.290009 172.630005 H 391.320009 V 244.580002 H 360.290009 V 172.630005 Z" class="cls-12" style="fill: rgb(144, 202, 205);" transform="matrix(1.089015007019043, 0, 0, 1.089015007019043, 49.72036978820131, 55.8785224899739)"/><path class="cls-9" d="M384.68,166.28a.63.63,0,0,1-.45-.18l-5.69-5.69a.64.64,0,1,1,.9-.9l5.69,5.69a.65.65,0,0,1,0,.9A.66.66,0,0,1,384.68,166.28Z" style="fill: rgb(213, 209, 222);" transform="matrix(1.089015007019043, 0, 0, 1.089015007019043, 49.72036978820131, 55.8785224899739)"/><path class="cls-9" d="M379,166.28a.64.64,0,0,1-.45-.18.63.63,0,0,1,0-.9l5.69-5.69a.63.63,0,0,1,.9,0,.65.65,0,0,1,0,.9l-5.69,5.69A.66.66,0,0,1,379,166.28Z" style="fill: rgb(213, 209, 222);" transform="matrix(1.089015007019043, 0, 0, 1.089015007019043, 49.72036978820131, 55.8785224899739)"/><path d="M 122.150002 227.649994 H 157.460003 V 232.779994 H 122.150002 V 227.649994 Z" class="cls-11" style="fill: rgb(0, 128, 128);" transform="matrix(1.089015007019043, 0, 0, 1.089015007019043, 51.606508704216935, 11.082570646712185)"/><path d="M 122.150002 231.479996 H 157.460003 V 251.999996 H 122.150002 V 231.479996 Z" class="cls-12" style="fill: rgb(144, 202, 205); fill-opacity: 1;" transform="matrix(1.089015007019043, 0, 0, 1.089015007019043, 51.606508704216935, 11.082570646712185)"/><path d="M 122.150002 249.889999 H 157.460003 V 254.569999 H 122.150002 V 249.889999 Z" class="cls-11" style="fill: rgb(0, 128, 128);" transform="matrix(1.089015007019043, 0, 0, 1.089015007019043, 51.606508704216935, 11.082570646712185)"/><path d="M 122.150002 253.389999 H 157.460003 V 272.129999 H 122.150002 V 253.389999 Z" class="cls-12" style="fill: rgb(144, 202, 205);" transform="matrix(1.089015007019043, 0, 0, 1.089015007019043, 51.606508704216935, 11.082570646712185)"/><path class="cls-9" d="M372.7,166.33h-5.77a.64.64,0,0,1-.64-.64v-5.77a.64.64,0,0,1,.64-.64h5.77a.64.64,0,0,1,.63.64v5.77A.64.64,0,0,1,372.7,166.33Zm-5.14-1.28h4.5v-4.49h-4.5Z" style="fill: rgb(213, 209, 222);" transform="matrix(1.089015007019043, 0, 0, 1.089015007019043, 49.72036978820131, 55.8785224899739)"/><path d="M 99.940002 306.709991 H 391.320007 V 316.529991 H 99.940002 V 306.709991 Z" class="cls-11" style="fill: rgb(74, 78, 105);" transform="matrix(1.089015007019043, 0, 0, 1.089015007019043, 49.72036978820131, 55.8785224899739)"/><path d="M 99.940002 172.630005 H 113.700003 V 306.710007 H 99.940002 V 172.630005 Z" class="cls-11" style="fill: rgb(74, 78, 105);" transform="matrix(1.0992215871810913, 0, 0, 1.0992215871810913, 48.63011405089662, 53.56096420139971)"/><path class="cls-5" d="M107,198.13h0a3.87,3.87,0,0,1-3.84-3.84h0a3.56,3.56,0,0,1,3.58-3.58h0a3.87,3.87,0,0,1,3.84,3.84h0A3.56,3.56,0,0,1,107,198.13Z" style="fill: rgb(213, 209, 222);" transform="matrix(1.089015007019043, 0, 0, 1.089015007019043, 49.72036978820131, 55.8785224899739)"/><path class="cls-5" d="M107,211.57h0a3.87,3.87,0,0,1-3.84-3.84h0a3.55,3.55,0,0,1,3.58-3.58h0a3.87,3.87,0,0,1,3.84,3.84h0A3.55,3.55,0,0,1,107,211.57Z" style="fill: rgb(213, 209, 222);" transform="matrix(1.089015007019043, 0, 0, 1.089015007019043, 49.72036978820131, 55.8785224899739)"/><path class="cls-5" d="M107,225h0a3.86,3.86,0,0,1-3.84-3.83h0a3.55,3.55,0,0,1,3.58-3.58h0a3.87,3.87,0,0,1,3.84,3.84h0A3.55,3.55,0,0,1,107,225Z" style="fill: rgb(213, 209, 222);" transform="matrix(1.089015007019043, 0, 0, 1.089015007019043, 49.72036978820131, 55.8785224899739)"/><path class="cls-5" d="M107,238.46h0a3.87,3.87,0,0,1-3.84-3.84h0a3.56,3.56,0,0,1,3.58-3.58h0a3.87,3.87,0,0,1,3.84,3.84h0A3.56,3.56,0,0,1,107,238.46Z" style="fill: rgb(213, 209, 222);" transform="matrix(1.089015007019043, 0, 0, 1.089015007019043, 49.72036978820131, 55.8785224899739)"/><path class="cls-5" d="M107,251.9h0a3.87,3.87,0,0,1-3.84-3.84h0a3.55,3.55,0,0,1,3.58-3.58h0a3.87,3.87,0,0,1,3.84,3.84h0A3.55,3.55,0,0,1,107,251.9Z" style="fill: rgb(213, 209, 222);" transform="matrix(1.089015007019043, 0, 0, 1.089015007019043, 49.72036978820131, 55.8785224899739)"/><path d="M 360.290009 184.580002 H 391.320009 V 187.290002 H 360.290009 V 184.580002 Z" class="cls-11" style="fill: rgb(0, 128, 128);" transform="matrix(1.089015007019043, 0, 0, 1.089015007019043, 49.72036978820131, 55.8785224899739)"/><path d="M 360.290009 199.25 H 391.320009 V 201.96 H 360.290009 V 199.25 Z" class="cls-11" style="fill: rgb(0, 128, 128);" transform="matrix(1.089015007019043, 0, 0, 1.089015007019043, 49.72036978820131, 55.8785224899739)"/><path d="M 360.290009 213.919998 H 391.320009 V 216.629998 H 360.290009 V 213.919998 Z" class="cls-11" style="fill: rgb(0, 128, 128);" transform="matrix(1.089015007019043, 0, 0, 1.089015007019043, 49.72036978820131, 55.8785224899739)"/><path d="M 360.290009 228.580002 H 391.320009 V 231.290002 H 360.290009 V 228.580002 Z" class="cls-11" style="fill: rgb(0, 128, 128);" transform="matrix(1.089015007019043, 0, 0, 1.089015007019043, 49.72036978820131, 55.8785224899739)"/><path d="M 172.759995 185.820007 H 339.309998 V 293.520004 H 172.759995 V 185.820007 Z" class="cls-1" style="fill: rgb(255, 255, 255);" transform="matrix(1.089015007019043, 0, 0, 1.089015007019043, 49.72036978820131, 55.8785224899739)"/><g class="cls-4" style="opacity: 0.1;" transform="matrix(1.089015007019043, 0, 0, 1.089015007019043, 49.72036978820131, 55.8785224899739)"><path class="cls-3" d="M35.1,427.26c0,3.17,20.35,5.74,45.44,5.74S126,430.43,126,427.26s-20.34-5.74-45.43-5.74S35.1,424.09,35.1,427.26Z" style="fill: teal;"/></g><path class="cls-13" d="M118.55,329.2a2.52,2.52,0,0,1-1.13-.26c-23-11.23-48.59-31.89-50-44.75a2.59,2.59,0,1,1,5.15-.55c1,9.59,23.92,29.34,47.09,40.64a2.59,2.59,0,0,1-1.14,4.92Z" style="fill: rgb(254, 155, 136);" transform="matrix(1.089015007019043, 0, 0, 1.089015007019043, 49.72036978820131, 55.8785224899739)"/><path d="M 112.37000274658203 336.5400085449219 L 94 327.4800109863281 L 121.72000122070312 271.2699890136719 L 139.27000427246094 278.1400146484375 L 140.10000610351562 280.3299865722656 L 112.37000274658203 336.5400085449219 Z" class="cls-5" style="fill: rgb(225, 229, 238);" transform="matrix(1.089015007019043, 0, 0, 1.089015007019043, 49.72036978820131, 55.8785224899739)"/><path d="M 105.970001 270.369995 H 126.460001 V 333.049995 H 105.970001 V 270.369995 Z" class="cls-1" transform="matrix(0.976623773574829, 0.48182955384254456, -0.48182955384254456, 0.976623773574829, 208.15027854064272, 33.79329452366534)" style="fill: rgb(255, 255, 255);"/><path class="cls-14" d="M131.14,288a7.32,7.32,0,1,1-3.33-9.81A7.33,7.33,0,0,1,131.14,288Z" style="fill: rgb(0, 128, 128);" transform="matrix(1.089015007019043, 0, 0, 1.089015007019043, 49.72036978820131, 55.8785224899739)"/><path class="cls-11" d="M122.78,305a7.32,7.32,0,1,1-3.32-9.81A7.32,7.32,0,0,1,122.78,305Z" style="fill: rgb(118, 123, 145);" transform="matrix(1.089015007019043, 0, 0, 1.089015007019043, 49.72036978820131, 55.8785224899739)"/><path class="cls-15" d="M114.43,321.89a7.33,7.33,0,1,1-3.33-9.81A7.33,7.33,0,0,1,114.43,321.89Z" style="fill: rgb(144, 202, 205);" transform="matrix(1.089015007019043, 0, 0, 1.089015007019043, 49.72036978820131, 55.8785224899739)"/><path d="M 86.379997 407.350006 H 92.029997 V 419.490006 H 86.379997 V 407.350006 Z" class="cls-5" style="fill: rgb(138, 146, 230);" transform="matrix(1.089015007019043, 0, 0, 1.089015007019043, 49.72036978820131, 55.8785224899739)"/><path class="cls-11" d="M105.22,426.44c0-1.55-.63-6-3.89-6l-5.41-.08-1.15-3.86a1.59,1.59,0,0,0-1.35-1.3l-.88,0c-.21,0-.29.12-.3.36-.14,2-.33,3-1.41,3l-4.45-.05c-1.81,0-1.7,1.05-1.72,2.39,0,0,0,4.53,0,5.62Z" style="fill: rgb(42, 46, 94);" transform="matrix(1.089015007019043, 0, 0, 1.089015007019043, 49.72036978820131, 55.8785224899739)"/><path class="cls-16" d="M99.58,426.44h5.64c0-1.55-.63-6-3.89-6l-1.75,0Z" style="fill: rgb(55, 60, 122);" transform="matrix(1.089015007019043, 0, 0, 1.089015007019043, 49.72036978820131, 55.8785224899739)"/><path d="M 105.33000183105469 427.8299865722656 L 84.72000122070312 427.8299865722656 L 84.62000274658203 426.3500061035156 L 105.2300033569336 426.3500061035156 L 105.33000183105469 427.8299865722656 Z" class="cls-16" style="fill: rgb(55, 60, 122);" transform="matrix(1.089015007019043, 0, 0, 1.089015007019043, 49.72036978820131, 55.8785224899739)"/><path class="cls-17" d="M72.84,421.23H66.23v-4.4a1.68,1.68,0,0,1,1.68-1.69h3.24a1.69,1.69,0,0,1,1.69,1.69Z" style="fill: rgb(54, 58, 104);" transform="matrix(1.089015007019043, 0, 0, 1.089015007019043, 49.72036978820131, 55.8785224899739)"/><path d="M 65.25 407.350006 H 70.9 V 419.490006 H 65.25 V 407.350006 Z" class="cls-5" style="fill: rgb(138, 146, 230);" transform="matrix(1.089015007019043, 0, 0, 1.089015007019043, 49.72036978820131, 55.8785224899739)"/><path class="cls-11" d="M65.38,419.49h5.69a3.29,3.29,0,0,1,3.29,3.29V426a0,0,0,0,1,0,0H63.81a0,0,0,0,1,0,0v-4.9A1.57,1.57,0,0,1,65.38,419.49Z" style="fill: rgb(42, 46, 94);" transform="matrix(1.089015007019043, 0, 0, 1.089015007019043, 49.72036978820131, 55.8785224899739)"/><path d="M 63.810001373291016 425.9599914550781 L 74.36000061035156 425.9599914550781 L 74.45999908447266 427.8299865722656 L 63.90999984741211 427.8299865722656 L 63.810001373291016 425.9599914550781 Z" class="cls-16" style="fill: rgb(55, 60, 122);" transform="matrix(1.089015007019043, 0, 0, 1.089015007019043, 49.72036978820131, 55.8785224899739)"/><path d="M 83.970001 335.359985 H 94.930001 V 413.419983 H 83.970001 V 335.359985 Z" class="cls-11" style="fill: rgb(42, 46, 94);" transform="matrix(1.089015007019043, 0, 0, 1.089015007019043, 49.72036978820131, 55.8785224899739)"/><path class="cls-11" d="M73.15,413.42H62.61c0-41.09,0-37,0-78.06h11Z" style="fill: rgb(42, 46, 94);" transform="matrix(1.089015007019043, 0, 0, 1.089015007019043, 49.72036978820131, 55.8785224899739)"/><path class="cls-18" d="M90,266H88.73v-5.71h1.63l1.21,3.32A1.76,1.76,0,0,1,90.13,266Z" style="fill: rgb(254, 141, 119);" transform="matrix(1.089015007019043, 0, 0, 1.089015007019043, 49.72036978820131, 55.8785224899739)"/><path class="cls-13" d="M85.35,275.71h-6.1V254.57H90.36c.19,0-.27,14.09-.43,15.38C89.6,272.54,88.47,275.71,85.35,275.71Z" style="fill: rgb(254, 155, 136);" transform="matrix(1.089015007019043, 0, 0, 1.089015007019043, 49.72036978820131, 55.8785224899739)"/><path d="M 79.69000244140625 284.1000061035156 L 75.13999938964844 284.1000061035156 L 75.13999938964844 265.29998779296875 L 84.80000305175781 265.29998779296875 L 84.80000305175781 276.95001220703125 L 79.69000244140625 284.1000061035156 Z" class="cls-13" style="fill: rgb(254, 155, 136);" transform="matrix(1.089015007019043, 0, 0, 1.089015007019043, 49.72036978820131, 55.8785224899739)"/><path d="M 78.76000213623047 275.8299865722656 L 75.20999908447266 274.8500061035156 L 74.0199966430664 273.010009765625 L 70.0199966430664 265.9599914550781 L 78.76000213623047 265.9599914550781 L 78.76000213623047 275.8299865722656 Z" class="cls-13" style="fill: rgb(254, 155, 136);" transform="matrix(1.089015007019043, 0, 0, 1.089015007019043, 49.72036978820131, 55.8785224899739)"/><path class="cls-16" d="M83.13,272.88,74,273l-8.51-13a6.48,6.48,0,0,1,5.89-9.18h7.47a4.26,4.26,0,0,1,4.26,4.26Z" style="fill: rgb(42, 46, 94);" transform="matrix(1.089015007019043, 0, 0, 1.089015007019043, 49.72036978820131, 55.8785224899739)"/><path class="cls-16" d="M88.18,256.57H71.81v-5.89a5.61,5.61,0,0,1,5.61-5.61H88.18a5.75,5.75,0,0,1,5.75,5.75h0A5.74,5.74,0,0,1,88.18,256.57Z" style="fill: rgb(42, 46, 94);" transform="matrix(1.089015007019043, 0, 0, 1.089015007019043, 49.72036978820131, 55.8785224899739)"/><path class="cls-13" d="M82.87,266h0A1.94,1.94,0,0,1,80.94,264v-2a1.93,1.93,0,0,1,1.93-1.93h0A1.92,1.92,0,0,1,84.8,262v2A1.93,1.93,0,0,1,82.87,266Z" style="fill: rgb(254, 155, 136);" transform="matrix(1.089015007019043, 0, 0, 1.089015007019043, 49.72036978820131, 55.8785224899739)"/><path class="cls-16" d="M80.78,253.79h6.07a0,0,0,0,1,0,0v5.29a4.46,4.46,0,0,1-4.46,4.46H80.78a0,0,0,0,1,0,0v-9.75A0,0,0,0,1,80.78,253.79Z" style="fill: rgb(42, 46, 94);" transform="matrix(1.089015007019043, 0, 0, 1.089015007019043, 49.72036978820131, 55.8785224899739)"/><path class="cls-16" d="M86.9,265.4v-8.59l-2.1,4.46V277h2.1A4.15,4.15,0,0,0,91,272.81v-3.28a1.44,1.44,0,0,0-1.45-1.44h0A2.69,2.69,0,0,1,86.9,265.4Z" style="fill: rgb(42, 46, 94);" transform="matrix(1.089015007019043, 0, 0, 1.089015007019043, 49.72036978820131, 55.8785224899739)"/><path class="cls-11" d="M62.6,341H93.92c2.54,0,4.59-2.84,4.59-6.35L62.6,319.94Z" style="fill: rgb(42, 46, 94);" transform="matrix(1.089015007019043, 0, 0, 1.089015007019043, 49.72036978820131, 55.8785224899739)"/><path class="cls-3" d="M75,277.43H86A12.37,12.37,0,0,1,98.42,289.8v45.92a0,0,0,0,1,0,0H62.6a0,0,0,0,1,0,0V289.8A12.37,12.37,0,0,1,75,277.43Z" style="fill: teal;" transform="matrix(1.089015007019043, 0, 0, 1.089015007019043, 49.72036978820131, 55.8785224899739)"/><path class="cls-13" d="M114.9,310.61c-7.94,0-15.93-7.95-24.4-24.25A2.59,2.59,0,0,1,95.1,284c7.46,14.36,14.7,22,20.44,21.43,5-.47,9.87-7.25,13.12-18.13a2.59,2.59,0,1,1,5,1.48c-2.31,7.74-7.67,20.87-17.59,21.81A10.8,10.8,0,0,1,114.9,310.61Z" style="fill: rgb(254, 155, 136);" transform="matrix(1.089015007019043, 0, 0, 1.089015007019043, 49.72036978820131, 55.8785224899739)"/><path class="cls-3" d="M95.07,281.34c4.4,5.62,5.72,8.65,8,14.26a13.2,13.2,0,0,1-6,9.15,19.21,19.21,0,0,1-6.83-8.81,18.74,18.74,0,0,1-.83-11,8.37,8.37,0,0,1,1.21-3C91.24,281.1,94,281.5,95.07,281.34Z" style="fill: teal;" transform="matrix(1.089015007019043, 0, 0, 1.089015007019043, 49.72036978820131, 55.8785224899739)"/><path class="cls-13" d="M118.55,329.2a2.59,2.59,0,0,1-2.15-1.14l-1.5-2.23a2.59,2.59,0,0,1,4.3-2.9l1.5,2.23a2.59,2.59,0,0,1-2.15,4Z" style="fill: rgb(254, 155, 136);" transform="matrix(1.089015007019043, 0, 0, 1.089015007019043, 49.72036978820131, 55.8785224899739)"/><g class="cls-4" style="opacity: 0.1;" transform="matrix(1.089015007019043, 0, 0, 1.089015007019043, 49.72036978820131, 55.8785224899739)"><path d="M 269.729996 447.390015 A 45.419998 5.61 0 0 1 224.309998 453.000015 A 45.419998 5.61 0 0 1 178.889999 447.390015 A 45.419998 5.61 0 0 1 224.309998 441.780015 A 45.419998 5.61 0 0 1 269.729996 447.390015 Z" class="cls-3" style="fill: teal;"/></g><path class="cls-13" d="M247.7,342a12.47,12.47,0,0,1-4.8-.93c-7.26-3-10.61-12.6-10-28.5a2.59,2.59,0,0,1,5.18.21c-.53,13.12,1.87,21.47,6.78,23.5,4.72,2,12.57-1.78,19.52-9.31a2.59,2.59,0,1,1,3.81,3.52C262.68,336.48,254.88,342,247.7,342Z" style="fill: rgb(254, 155, 136);" transform="matrix(1.089015007019043, 0, 0, 1.089015007019043, 49.72036978820131, 55.8785224899739)"/><path class="cls-11" d="M269.41,337.9l-82.87-3.81a4.27,4.27,0,0,1-4.26-4.27h0a4.27,4.27,0,0,1,4.26-4.27l82.87-3.81c2.35,0,4.27,5.72,4.27,8.08h0C273.68,332.18,271.76,337.9,269.41,337.9Z" style="fill: rgb(255, 255, 255);" transform="matrix(1.089015007019043, 0, 0, 1.089015007019043, 49.72036978820131, 55.8785224899739)"/><path class="cls-19" d="M321.1,324.76S305.18,341.4,285.91,344c-11.25,1.52-18.38-5.94-18.38-13.83s7-14.74,18.38-14.74C301.79,315.44,321.1,324.76,321.1,324.76Z" style="fill: rgb(0, 163, 160);" transform="matrix(1.089015007019043, 0, 0, 1.089015007019043, 49.72036978820131, 55.8785224899739)"/><path d="M 227.789993 425.850006 H 233.439993 V 437.990006 H 227.789993 V 425.850006 Z" class="cls-5" style="fill: rgb(138, 146, 230);" transform="matrix(1.089015007019043, 0, 0, 1.089015007019043, 49.72036978820131, 55.8785224899739)"/><path class="cls-11" d="M246.63,444.93c0-1.54-.63-6-3.89-6l-5.41-.07L236.18,435a1.57,1.57,0,0,0-1.35-1.29l-.88,0c-.21,0-.29.13-.3.37-.14,2-.33,3-1.41,3l-4.45-.06c-1.81,0-1.7,1.06-1.72,2.39,0,0,0,4.54,0,5.62Z" style="fill: rgb(42, 46, 94);" transform="matrix(1.089015007019043, 0, 0, 1.089015007019043, 49.72036978820131, 55.8785224899739)"/><path class="cls-16" d="M241,444.93h5.64c0-1.54-.63-6-3.89-6l-1.75,0Z" style="fill: rgb(55, 60, 122);" transform="matrix(1.089015007019043, 0, 0, 1.089015007019043, 49.72036978820131, 55.8785224899739)"/><path d="M 246.74000549316406 446.3299865722656 L 226.1300048828125 446.3299865722656 L 226.02999877929688 444.8500061035156 L 246.63999938964844 444.8500061035156 L 246.74000549316406 446.3299865722656 Z" class="cls-16" style="fill: rgb(55, 60, 122);" transform="matrix(1.089015007019043, 0, 0, 1.089015007019043, 49.72036978820131, 55.8785224899739)"/><path class="cls-17" d="M216.15,439.73h-6.61v-4.41a1.69,1.69,0,0,1,1.69-1.69h3.23a1.69,1.69,0,0,1,1.69,1.69Z" style="fill: rgb(54, 58, 104);" transform="matrix(1.089015007019043, 0, 0, 1.089015007019043, 49.72036978820131, 55.8785224899739)"/><path d="M 208.559998 425.850006 H 214.209998 V 437.990006 H 208.559998 V 425.850006 Z" class="cls-5" style="fill: rgb(138, 146, 230);" transform="matrix(1.089015007019043, 0, 0, 1.089015007019043, 49.72036978820131, 55.8785224899739)"/><path class="cls-11" d="M208.7,438h5.69a3.29,3.29,0,0,1,3.29,3.29v3.18a0,0,0,0,1,0,0H207.12a0,0,0,0,1,0,0v-4.9A1.57,1.57,0,0,1,208.7,438Z" style="fill: rgb(42, 46, 94);" transform="matrix(1.089015007019043, 0, 0, 1.089015007019043, 49.72036978820131, 55.8785224899739)"/><path d="M 207.1199951171875 444.4599914550781 L 217.6699981689453 444.4599914550781 L 217.77000427246094 446.3299865722656 L 207.22000122070312 446.3299865722656 L 207.1199951171875 444.4599914550781 Z" class="cls-16" style="fill: rgb(55, 60, 122);" transform="matrix(1.089015007019043, 0, 0, 1.089015007019043, 49.72036978820131, 55.8785224899739)"/><path d="M 235.05999755859375 431.9200134277344 L 226.64999389648438 431.9200134277344 L 225.3800048828125 353.8599853515625 L 236.33999633789062 353.8599853515625 L 235.05999755859375 431.9200134277344 Z" class="cls-11" style="fill: rgb(42, 46, 94);" transform="matrix(1.089015007019043, 0, 0, 1.089015007019043, 49.72036978820131, 55.8785224899739)"/><path class="cls-11" d="M215.19,431.92h-8l-1.27-78.06h11Z" style="fill: rgb(42, 46, 94);" transform="matrix(1.089015007019043, 0, 0, 1.089015007019043, 49.72036978820131, 55.8785224899739)"/><path class="cls-11" d="M206.8,362.5c7,2.38,29.32-.65,29.41-.68l1-12.88s-25.77-6.07-32-.62C203.14,350.17,204,361.56,206.8,362.5Z" style="fill: rgb(42, 46, 94);" transform="matrix(1.089015007019043, 0, 0, 1.089015007019043, 49.72036978820131, 55.8785224899739)"/><path class="cls-3" d="M237.24,348.94l-32-.62-1.26-40a12.37,12.37,0,0,1,12.38-12.37h11.08c6.83,0,11.36,4.53,11.36,11.36Z" style="fill: teal;" transform="matrix(1.089015007019043, 0, 0, 1.089015007019043, 49.72036978820131, 55.8785224899739)"/><path class="cls-13" d="M246.3,341.9a1.83,1.83,0,0,1-.33,0,11.69,11.69,0,0,1-5.14-1.93,14.11,14.11,0,0,1-4.33-4.87c-2.77-4.93-4-12.51-3.57-22.51a2.59,2.59,0,0,1,5.18.21c-.37,9,.61,15.68,2.9,19.76a9,9,0,0,0,2.73,3.12,6.46,6.46,0,0,0,2.89,1.08,2.59,2.59,0,0,1-.33,5.16Z" style="fill: rgb(254, 155, 136);" transform="matrix(1.089015007019043, 0, 0, 1.089015007019043, 49.72036978820131, 55.8785224899739)"/><path class="cls-3" d="M239.23,319.8s-7,.3-10.69,0a19.13,19.13,0,0,1-.39-11.14,18.71,18.71,0,0,1,5.75-9.39C234.71,298.52,240.67,313.92,239.23,319.8Z" style="fill: teal;" transform="matrix(1.089015007019043, 0, 0, 1.089015007019043, 49.72036978820131, 55.8785224899739)"/><path class="cls-18" d="M231.38,284.45h-1.24v-5.71h1.63l1.21,3.33a1.75,1.75,0,0,1-1.44,2.37Z" style="fill: rgb(254, 141, 119);" transform="matrix(1.089015007019043, 0, 0, 1.089015007019043, 49.72036978820131, 55.8785224899739)"/><path class="cls-13" d="M226.76,294.21h-6.11V273.06h11.12c.19,0,.28,14.53.28,14.53C232.05,292.47,229.88,294.21,226.76,294.21Z" style="fill: rgb(254, 155, 136);" transform="matrix(1.089015007019043, 0, 0, 1.089015007019043, 49.72036978820131, 55.8785224899739)"/><path class="cls-20" d="M232,277.49h-.51a.34.34,0,0,1-.34-.34h0a.34.34,0,0,1,.34-.33H232a.34.34,0,0,1,.34.33h0A.34.34,0,0,1,232,277.49Z" style="fill: rgb(49, 0, 71);" transform="matrix(1.089015007019043, 0, 0, 1.089015007019043, 49.72036978820131, 55.8785224899739)"/><path class="cls-16" d="M229.41,263.57H218.83a4.92,4.92,0,0,0-.67,0c-.29,0-.58,0-.87,0h0a11,11,0,0,0-11,11v26.13a11,11,0,0,0,11,11h0a11,11,0,0,0,11-11V276.4a1.33,1.33,0,0,1,1.33-1.33h0a5.76,5.76,0,0,0,5.69-6.61A5.87,5.87,0,0,0,229.41,263.57Z" style="fill: rgb(42, 46, 94);" transform="matrix(1.089015007019043, 0, 0, 1.089015007019043, 49.72036978820131, 55.8785224899739)"/><path class="cls-21" d="M268.37,96.29h0a16,16,0,0,1-14.78-17.22l1.74-22.86a16,16,0,0,1,17.22-14.78h0a16,16,0,0,1,14.78,17.22l-1.74,22.86A16,16,0,0,1,268.37,96.29Z" style="fill: rgb(42, 46, 94);" transform="matrix(1.089015007019043, 0, 0, 1.089015007019043, 49.72036978820131, 55.8785224899739)"/><path class="cls-18" d="M252.83,107.49c-9.69,0-19.59-8.6-23.1-17.23l4.8-2c2.93,7.2,11.82,14.69,19.36,14,6.75-.67,9.54-8,10.69-14l5.09,1c-2.83,14.8-10.78,17.76-15.27,18.2A13.76,13.76,0,0,1,252.83,107.49Z" style="fill: rgb(254, 141, 119);" transform="matrix(1.089015007019043, 0, 0, 1.089015007019043, 49.72036978820131, 55.8785224899739)"/><path class="cls-22" d="M274.71,90.77c-.34,5.2-1.84,7.85-4.89,12.07-5.86-.48-7.94-2-9.64-5.53a60.5,60.5,0,0,0,2.15-10.22C267.15,87.35,270.21,89,274.71,90.77Z" style="fill: rgb(0, 128, 128);" transform="matrix(1.089015007019043, 0, 0, 1.089015007019043, 49.72036978820131, 55.8785224899739)"/><path d="M 216.029999 174.759995 H 221.879999 V 187.309995 H 216.029999 V 174.759995 Z" class="cls-5" transform="matrix(-1.025083303451538, -0.367638498544693, 0.367638498544693, -1.025083303451538, 446.0347542486504, 519.1128746017902)" style="fill: rgb(138, 146, 230);"/><path class="cls-16" d="M203.8,190.24c.19-.38-.55-7.2,2.63-6.07L210,185.4l2.46-3.36a1.64,1.64,0,0,1,1.78-.78l.85.28c.21.07.24.22.17.46-.57,2-.73,3,.33,3.39l4.35,1.5c1.76.63,1.29,1.62.84,2.93,0,0-1.53,4.43-1.92,5.48Z" style="fill: rgb(55, 60, 122);" transform="matrix(1.089015007019043, 0, 0, 1.089015007019043, 49.72036978820131, 55.8785224899739)"/><path class="cls-11" d="M218.9,195.22,204.34,190l2.09-5.83-1.71-.58c-3.12-1.12-5.24,2.89-5.86,4.44h0l-.55,1.54,20.06,7.2Z" style="fill: rgb(42, 46, 94);" transform="matrix(1.089015007019043, 0, 0, 1.089015007019043, 49.72036978820131, 55.8785224899739)"/><path class="cls-16" d="M282.08,145.08C285.17,145,303.72,127,303.72,127s-20.32,1.1-20.31,1c-55.31.87-50.31-2.75-69.94,50.05l11.05,3.9C242.47,134.66,235.87,143.68,282.08,145.08Z" style="fill: rgb(55, 60, 122);" transform="matrix(1.089015007019043, 0, 0, 1.089015007019043, 49.72036978820131, 55.8785224899739)"/><path d="M 265.23999 198.630005 H 271.08999 V 211.180005 H 265.23999 V 198.630005 Z" class="cls-5" transform="matrix(-1.0738911628723147, 0.18086394667625433, -0.18086394667625433, -1.0738911628723147, 666.7889351568533, 450.5920310959309)" style="fill: rgb(138, 146, 230);"/><path class="cls-16" d="M259.45,220.35c0-.43-4-6-.67-6.57l3.73-.69L263,209a1.64,1.64,0,0,1,1.16-1.56l.89-.17c.22,0,.32.08.37.32.49,2,.84,3,1.94,2.8l4.54-.82c1.84-.31,1.91.78,2.16,2.14,0,0,.82,4.61,1,5.72Z" style="fill: rgb(55, 60, 122);" transform="matrix(1.089015007019043, 0, 0, 1.089015007019043, 49.72036978820131, 55.8785224899739)"/><path class="cls-11" d="M275.06,217.31l-15.26,2.56-1-6.09-1.78.32c-3.27.55-3.15,5.08-2.94,6.74h0l.27,1.61,21-3.53Z" style="fill: rgb(42, 46, 94);" transform="matrix(1.089015007019043, 0, 0, 1.089015007019043, 49.72036978820131, 55.8785224899739)"/><path d="M 271.79998779296875 142.6699981689453 L 302.6499938964844 142.6699981689453 L 303.7300109863281 126.9800033569336 L 272.1700134277344 131.77999877929688 L 271.79998779296875 142.6699981689453 Z" class="cls-16" style="fill: rgb(55, 60, 122);" transform="matrix(1.089015007019043, 0, 0, 1.089015007019043, 49.72036978820131, 55.8785224899739)"/><path class="cls-16" d="M305.63,142.67c2.75-1.28.61-10.43-1.91-15.68-.57-1.21-6.93-.31-7-.36C249,154.45,253.24,149.37,262,205l11.54-2C266,153,264.65,164.05,305.63,142.67Z" style="fill: rgb(55, 60, 122);" transform="matrix(1.089015007019043, 0, 0, 1.089015007019043, 49.72036978820131, 55.8785224899739)"/><path class="cls-3" d="M303.72,127s-19.9,7-31.92,1.15l-9.52-36.47a12.8,12.8,0,0,1,9.91-15.14l11.21-2.34a12.8,12.8,0,0,1,15.13,9.91Z" style="fill: teal;" transform="matrix(1.089015007019043, 0, 0, 1.089015007019043, 49.72036978820131, 55.8785224899739)"/><path class="cls-18" d="M275,63.14l4.61-1,2.95,14.13a5,5,0,0,1-3.87,5.91h0a5,5,0,0,1-5.91-3.86l-1.44-6.9Z" style="fill: rgb(254, 141, 119);" transform="matrix(1.089015007019043, 0, 0, 1.089015007019043, 49.72036978820131, 55.8785224899739)"/><path class="cls-18" d="M260.35,59.29l1.53,6.11a3,3,0,0,1-2.92-2l-.25-1.21A2.72,2.72,0,0,1,260.35,59.29Z" style="fill: rgb(254, 141, 119);" transform="matrix(1.089015007019043, 0, 0, 1.089015007019043, 49.72036978820131, 55.8785224899739)"/><path class="cls-13" d="M262.27,67.94l-2.2-9.07c-.93-4.54-.29-7.49,3.68-8.23L276.36,48l3.36,14.89C282.1,74.29,264.87,78.35,262.27,67.94Z" style="fill: rgb(254, 155, 136);" transform="matrix(1.089015007019043, 0, 0, 1.089015007019043, 49.72036978820131, 55.8785224899739)"/><path class="cls-23" d="M264.85,61.61a.91.91,0,1,1-1.79.38.91.91,0,1,1,1.79-.38Z" style="fill: rgb(8, 41, 81);" transform="matrix(1.089015007019043, 0, 0, 1.089015007019043, 49.72036978820131, 55.8785224899739)"/><path class="cls-23" d="M271.93,60.12a.92.92,0,0,1-1.8.38.93.93,0,0,1,.71-1.09A.91.91,0,0,1,271.93,60.12Z" style="fill: rgb(8, 41, 81);" transform="matrix(1.089015007019043, 0, 0, 1.089015007019043, 49.72036978820131, 55.8785224899739)"/><path class="cls-24" d="M273.24,63.18a5.67,5.67,0,0,1-4.34,5.58c-2.45.51-4.52-1.06-5.49-3.51Z" style="fill: rgb(255, 255, 255);" transform="matrix(0.6647437916556168, 0, 0, 0.6647437916556168, 165.3691668774836, 86.80649657117344)"/><path class="cls-18" d="M267.19,64.07a1.09,1.09,0,0,1-.79-.27c-.45-.43-.31-1.21-.08-2.52.05-.31.11-.65.17-1a.32.32,0,1,1,.63.1l-.17,1c-.17.94-.31,1.76-.11,2s.28.14.93,0a.3.3,0,0,1,.37.24.32.32,0,0,1-.24.38A4.18,4.18,0,0,1,267.19,64.07Z" style="fill: rgb(254, 141, 119);" transform="matrix(1.089015007019043, 0, 0, 1.089015007019043, 49.72036978820131, 55.8785224899739)"/><path class="cls-13" d="M278.91,55.27l-1,.2,1.33,6.28,1-.2a2.6,2.6,0,0,0,2-3.07L282,57.27A2.59,2.59,0,0,0,278.91,55.27Z" style="fill: rgb(254, 155, 136);" transform="matrix(1.089015007019043, 0, 0, 1.089015007019043, 49.72036978820131, 55.8785224899739)"/><path class="cls-21" d="M277,53.46,268,55a3.23,3.23,0,0,1-3.71-2.66h0c-.3-1.76-1.16-5.4.6-5.7l7.37,1.1A3.22,3.22,0,0,1,276,50.4h0C276.26,52.16,278.73,53.16,277,53.46Z" style="fill: rgb(14, 50, 102);" transform="matrix(1.089015007019043, 0, 0, 1.089015007019043, 49.72036978820131, 55.8785224899739)"/><path class="cls-21" d="M269.62,57.93a.33.33,0,0,1-.32-.27.32.32,0,0,1,.27-.36l1.68-.29a.32.32,0,0,1,.36.27.31.31,0,0,1-.26.36l-1.68.29Z" style="fill: rgb(14, 50, 102);" transform="matrix(1.089015007019043, 0, 0, 1.089015007019043, 49.72036978820131, 55.8785224899739)"/><path class="cls-21" d="M262.27,59.33a.32.32,0,0,1-.31-.26.32.32,0,0,1,.26-.37l1.68-.28a.31.31,0,0,1,.37.26.32.32,0,0,1-.26.37l-1.68.28Z" style="fill: rgb(14, 50, 102);" transform="matrix(1.089015007019043, 0, 0, 1.089015007019043, 49.72036978820131, 55.8785224899739)"/><path class="cls-21" d="M273.91,47.72l2,9.45a3.57,3.57,0,0,0,4.23,2.76h0c1.91-.41,4-.4,3.59-2.32l-2.12-7.87A3.58,3.58,0,0,0,277.37,47Z" style="fill: rgb(14, 50, 102);" transform="matrix(1.089015007019043, 0, 0, 1.089015007019043, 49.72036978820131, 55.8785224899739)"/><path class="cls-18" d="M279.05,85.94h0A10.88,10.88,0,0,0,287.62,74a13.08,13.08,0,0,0-4.22.16l-11.21,2.34a12.76,12.76,0,0,0-5.51,2.65A10.85,10.85,0,0,0,279.05,85.94Z" style="fill: rgb(254, 141, 119);" transform="matrix(1.089015007019043, 0, 0, 1.089015007019043, 49.72036978820131, 55.8785224899739)"/><path d="M 198.110001 86.760002 H 253.029999 V 137.040001 H 198.110001 V 86.760002 Z" class="cls-25" transform="matrix(1.0600682497024536, -0.2494176775217056, 0.2494176775217056, 1.0600682497024536, 28.332113715203263, 115.39319381565753)" style="fill: rgb(0, 81, 79);"/><path d="M 202.690002 90.959999 H 248.440002 V 132.849998 H 202.690002 V 90.959999 Z" class="cls-3" transform="matrix(1.0600682497024536, -0.2494176775217056, 0.2494176775217056, 1.0600682497024536, 28.332113715203263, 115.39319381565753)" style="fill: teal;"/><path class="cls-1" d="M232.81,95.05l-19.23,4.8a4.59,4.59,0,0,0-3.34,5.55l4.8,19.23a4.59,4.59,0,0,0,5.55,3.34l19.24-4.8a4.58,4.58,0,0,0,3.33-5.55l-4.79-19.23A4.6,4.6,0,0,0,232.81,95.05Zm7.39,23.31a1.53,1.53,0,0,1-1.11,1.85L219.85,125a1.54,1.54,0,0,1-1.85-1.12l-4.79-19.23a1.52,1.52,0,0,1,1.11-1.85L233.55,98a1.53,1.53,0,0,1,1.85,1.12l4.8,19.23Z" style="fill: rgb(144, 202, 205);" transform="matrix(1.089015007019043, 0, 0, 1.089015007019043, 49.72036978820131, 55.8785224899739)"/><path class="cls-1" d="M230.73,104.41a1.87,1.87,0,0,0-1.14.84l-5,8.28-2.2-1.32a1.84,1.84,0,0,0-2.53.63,1.79,1.79,0,0,0-.21,1.39,1.87,1.87,0,0,0,.84,1.14l3.78,2.27a1.84,1.84,0,0,0,2.53-.63l5.91-9.86a1.84,1.84,0,0,0-.63-2.53A1.87,1.87,0,0,0,230.73,104.41Z" style="fill: rgb(144, 202, 205);" transform="matrix(1.089015007019043, 0, 0, 1.089015007019043, 49.72036978820131, 55.8785224899739)"/><path class="cls-13" d="M251.59,126.9q-2.94,0-6.08-.21a2.68,2.68,0,1,1,.35-5.34c16.1,1.06,27.81-2.19,34.82-9.66,8.47-9,7.86-21.74,7.2-26.79a2.68,2.68,0,0,1,5.32-.69c.75,5.81,1.42,20.46-8.61,31.15C277.39,123,266.31,126.9,251.59,126.9Z" style="fill: rgb(254, 155, 136);" transform="matrix(1.089015007019043, 0, 0, 1.089015007019043, 49.72036978820131, 55.8785224899739)"/><path class="cls-13" d="M225.78,91.54a2.69,2.69,0,0,1-2.33-1.35L222.18,88a2.68,2.68,0,0,1,4.65-2.66l1.27,2.23a2.67,2.67,0,0,1-1,3.65A2.62,2.62,0,0,1,225.78,91.54Z" style="fill: rgb(254, 155, 136);" transform="matrix(1.089015007019043, 0, 0, 1.089015007019043, 49.72036978820131, 55.8785224899739)"/><path class="cls-3" d="M289,76c-.13.18-4.12,20.82-4.13,20.82,1.91,3.11,6.78,4,10.06,2.81s1.1-18.1,1.17-19.57Z" style="fill: teal;" transform="matrix(1.089015007019043, 0, 0, 1.089015007019043, 49.72036978820131, 55.8785224899739)"/><path d="M 329.730011 217.860001 H 384.650009 V 268.139999 H 329.730011 V 217.860001 Z" class="cls-25" transform="matrix(1.0600682497024536, -0.2494176775217056, 0.2494176775217056, 1.0600682497024536, -0.5594535150214597, 152.0385490402669)" style="fill: rgb(0, 81, 79);"/><path d="M 334.320007 222.059998 H 380.070007 V 263.949997 H 334.320007 V 222.059998 Z" class="cls-3" transform="matrix(1.0600682497024536, -0.2494176775217056, 0.2494176775217056, 1.0600682497024536, -0.5594535150214597, 152.0385490402669)" style="fill: teal;"/><g class="cls-4" style="opacity: 0.1;" transform="matrix(1.089015007019043, 0, 0, 1.089015007019043, 49.72036978820131, 55.8785224899739)"><path class="cls-3" d="M368.28,427.83c0,3.1,20.34,5.61,45.42,5.61s45.42-2.51,45.42-5.61-20.34-5.6-45.42-5.6S368.28,424.74,368.28,427.83Z" style="fill: teal;"/></g><path class="cls-18" d="M417.59,298.78c-12.37-2-25.26-7.48-35.72-34.47l3.24-2.47c9.12,23.51,19.74,29.71,32.89,31.79Z" style="fill: rgb(254, 141, 119);" transform="matrix(1.089015007019043, 0, 0, 1.089015007019043, 49.72036978820131, 55.8785224899739)"/><path d="M 440.7699890136719 406.95001220703125 L 445.0299987792969 403.2300109863281 L 435.19000244140625 393.7300109863281 L 431.7900085449219 398.67999267578125 L 440.7699890136719 406.95001220703125 Z" class="cls-5" style="fill: rgb(138, 146, 230);" transform="matrix(1.089015007019043, 0, 0, 1.089015007019043, 49.72036978820131, 55.8785224899739)"/><path class="cls-11" d="M435,419.21c-1.06-1.12-3.85-4.7-1.55-7l3.75-3.9-1.94-3.53a1.59,1.59,0,0,1,0-1.88l.6-.63c.15-.16.29-.13.47,0,1.54,1.33,2.36,1.88,3.11,1.1l3.09-3.2c1.28-1.29,2-.47,2.91.46,0,0,3.26,3.15,4,3.92Z" style="fill: rgb(42, 46, 94);" transform="matrix(1.089015007019043, 0, 0, 1.089015007019043, 49.72036978820131, 55.8785224899739)"/><path class="cls-16" d="M438.94,415.21l-4,4c-1.06-1.12-3.85-4.7-1.55-7l1.21-1.26Z" style="fill: rgb(55, 60, 122);" transform="matrix(1.089015007019043, 0, 0, 1.089015007019043, 49.72036978820131, 55.8785224899739)"/><path d="M 432.410004 411.600006 H 453.020004 V 413.180006 H 432.410004 V 411.600006 Z" class="cls-16" transform="matrix(-0.7661426663398742, 0.7739374041557312, -0.7739374041557312, -0.7661426663398742, 1190.1913399420096, 478.24211654514954)" style="fill: rgb(55, 60, 122);"/><path d="M 401.529999 407.25 H 407.179999 V 419.39 H 401.529999 V 407.25 Z" class="cls-5" transform="matrix(-1.089015007019043, 1.3336589341056122e-16, -1.3336589341056122e-16, -1.089015007019043, 930.4285835943538, 956.1019493088215)" style="fill: rgb(138, 146, 230);"/><path class="cls-16" d="M388.34,426.34c.05-1.55.63-6,3.89-6l5.41-.08,1.15-3.86a1.59,1.59,0,0,1,1.35-1.3l.88,0c.21,0,.29.12.3.36.14,2,.33,3,1.41,3l4.45-.05c1.81,0,1.71,1.05,1.72,2.39,0,0,.05,4.53,0,5.62Z" style="fill: rgb(55, 60, 122);" transform="matrix(1.089015007019043, 0, 0, 1.089015007019043, 49.72036978820131, 55.8785224899739)"/><path class="cls-11" d="M394,426.34h-5.64c.05-1.55.63-6,3.89-6l1.75,0Z" style="fill: rgb(42, 46, 94);" transform="matrix(1.089015007019043, 0, 0, 1.089015007019043, 49.72036978820131, 55.8785224899739)"/><path d="M 388.329987 426.25 H 408.939987 V 427.83 H 388.329987 V 426.25 Z" class="cls-11" transform="matrix(-1.089015007019043, 1.3336589341056122e-16, -1.3336589341056122e-16, -1.089015007019043, 917.95940634826, 985.9954429611653)" style="fill: rgb(42, 46, 94);"/><path d="M 399.269989 333.779999 H 410.229989 V 411.839996 H 399.269989 V 333.779999 Z" class="cls-16" style="fill: rgb(55, 60, 122);" transform="matrix(1.089015007019043, 0, 0, 1.089015007019043, 49.72036978820131, 55.8785224899739)"/><path class="cls-11" d="M431.11,401.58l8-7.66c-22-22.41-29.75-28.61-36.47-61-4.77-.65-9.54-1.27-14.31-1.9C400,368.4,403.41,374.29,431.11,401.58Z" style="fill: rgb(42, 46, 94);" transform="matrix(1.089015007019043, 0, 0, 1.089015007019043, 49.72036978820131, 55.8785224899739)"/><path class="cls-11" d="M419.17,326.84c0,5.41-4.12,8.34-9.2,8.34H389.74c-2.39,0-4.32-2.84-4.32-6.35l.09-2,33.66-12.73Z" style="fill: rgb(42, 46, 94);" transform="matrix(1.089015007019043, 0, 0, 1.089015007019043, 49.72036978820131, 55.8785224899739)"/><path d="M 312.079987 166 H 320.879987 V 174.8 H 312.079987 V 166 Z" class="cls-9" transform="matrix(1.039011359214783, 0.32620406150817877, -0.32620406150817877, 1.039011359214783, 119.22746626833293, -38.21443292928802)" style="fill: rgb(0, 163, 160);"/><path d="M 391.619995 190.970001 H 400.419995 V 199.770001 H 391.619995 V 190.970001 Z" class="cls-9" transform="matrix(1.0390113592147827, 0.326204150915146, -0.326204150915146, 1.0390113592147827, 148.5226044558943, 68.42178401134163)" style="fill: rgb(144, 202, 205);"/><path d="M 364.23999 275.230011 H 373.03999 V 284.030011 H 364.23999 V 275.230011 Z" class="cls-9" transform="matrix(1.0390113592147827, 0.32620403170585627, -0.32620403170585627, 1.0390113592147827, -59.58250573059763, -22.274454499772276)" style="fill: rgb(0, 163, 160);"/><path class="cls-18" d="M395,258l1.21.23,1.09-5.6-1.59-.31-1.83,3a1.77,1.77,0,0,0,1,2.61Z" style="fill: rgb(254, 141, 119);" transform="matrix(1.089015007019043, 0, 0, 1.089015007019043, 49.72036978820131, 55.8785224899739)"/><path class="cls-13" d="M397.39,268.47l6,1.16,4-20.75-10.91-2.13c-.18,0-2.42,13.89-2.51,15.19C393.83,264.54,394.33,267.87,397.39,268.47Z" style="fill: rgb(254, 155, 136);" transform="matrix(1.089015007019043, 0, 0, 1.089015007019043, 49.72036978820131, 55.8785224899739)"/><path d="M 395.75 278.0899963378906 L 405.80999755859375 278.6499938964844 L 409.3999938964844 260.19000244140625 L 399.9200134277344 258.3500061035156 L 397.70001220703125 269.7799987792969 L 395.75 278.0899963378906 Z" class="cls-13" style="fill: rgb(254, 155, 136);" transform="matrix(1.089015007019043, 0, 0, 1.089015007019043, 49.72036978820131, 55.8785224899739)"/><path d="M 403.8399963378906 269.8399963378906 L 407.510009765625 269.54998779296875 L 413.25 261.04998779296875 L 405.7300109863281 260.1499938964844 L 403.8399963378906 269.8399963378906 Z" class="cls-13" style="fill: rgb(254, 155, 136);" transform="matrix(1.089015007019043, 0, 0, 1.089015007019043, 49.72036978820131, 55.8785224899739)"/><path class="cls-11" d="M405.32,267.08h0a5.39,5.39,0,0,0,5.7-2.44l5.46-8.8a6.48,6.48,0,0,0-4-10.13l-3.95-.55a4.25,4.25,0,0,0-5,3.36l-2.38,12.24A5.39,5.39,0,0,0,405.32,267.08Z" style="fill: rgb(42, 46, 94);" transform="matrix(1.089015007019043, 0, 0, 1.089015007019043, 49.72036978820131, 55.8785224899739)"/><path class="cls-11" d="M398.27,249.14l16.06,3.12,1.13-5.79A5.61,5.61,0,0,0,411,239.9l-10.57-2.05a5.75,5.75,0,0,0-6.74,4.55h0A5.75,5.75,0,0,0,398.27,249.14Z" style="fill: rgb(42, 46, 94);" transform="matrix(1.089015007019043, 0, 0, 1.089015007019043, 49.72036978820131, 55.8785224899739)"/><path class="cls-11" d="M402.58,256.18l1.63,1.2,1.86-9.56-6-1.16-1,5.19C398.63,254.27,398.87,255.81,402.58,256.18Z" style="fill: rgb(42, 46, 94);" transform="matrix(1.089015007019043, 0, 0, 1.089015007019043, 49.72036978820131, 55.8785224899739)"/><path class="cls-11" d="M395.43,251.06l.5.1a.34.34,0,0,0,.4-.27h0a.33.33,0,0,0-.27-.4l-.5-.1a.35.35,0,0,0-.4.27h0A.35.35,0,0,0,395.43,251.06Z" style="fill: rgb(42, 46, 94);" transform="matrix(1.089015007019043, 0, 0, 1.089015007019043, 49.72036978820131, 55.8785224899739)"/><path class="cls-13" d="M401.36,259.3h0a1.93,1.93,0,0,0,2.26-1.53l.39-2a1.93,1.93,0,0,0-1.53-2.26h0a1.94,1.94,0,0,0-2.26,1.52l-.39,2A1.94,1.94,0,0,0,401.36,259.3Z" style="fill: rgb(254, 155, 136);" transform="matrix(1.089015007019043, 0, 0, 1.089015007019043, 49.72036978820131, 55.8785224899739)"/><path class="cls-15" d="M385.51,271.61h33.66a0,0,0,0,1,0,0v43.24a12,12,0,0,1-12,12H397.5a12,12,0,0,1-12-12V271.61A0,0,0,0,1,385.51,271.61Z" transform="matrix(-1.089015007019043, 1.3336589341056122e-16, -1.3336589341056122e-16, -1.089015007019043, 926.028986426385, 707.5995689377278)" style="fill: rgb(0, 128, 128);"/><path class="cls-1" d="M350.9,233.4,361,230.69c4.64-1.24,9.49,1.78,10.82,6.75s-1.35,10-6,11.25l-10.08,2.71c-4.64,1.24-9.49-1.78-10.82-6.75S346.25,234.64,350.9,233.4Z" style="fill: rgb(144, 202, 205);" transform="matrix(1.089015007019043, 0, 0, 1.089015007019043, 49.25411460021303, 52.148488615462185)"/><path class="cls-3" d="M361.7,233.39a6.54,6.54,0,1,1-4.19,7.88A6.33,6.33,0,0,1,361.7,233.39Z" style="fill: teal;" transform="matrix(1.089015007019043, 0, 0, 1.089015007019043, 49.25411460021303, 52.148488615462185)"/><path class="cls-13" d="M391.11,283a1.73,1.73,0,0,1-.32,0c-14.41-2.23-26.35-15.49-27.78-30.84a1.75,1.75,0,0,1,1.72-1.82,1.83,1.83,0,0,1,2,1.54c1.28,13.65,12.11,25.87,24.66,27.81a1.71,1.71,0,0,1,1.54,1.95A1.85,1.85,0,0,1,391.11,283Z" style="fill: rgb(254, 155, 136);" transform="matrix(1.089015007019043, 0, 0, 1.089015007019043, 49.72036978820131, 55.8785224899739)"/><path class="cls-15" d="M396.17,276.28l-17.54-7.78s-4.72,3.12-5.77,7c1.95,3.18,11.22,10.59,14.62,12.11s1.18-3,4.84-3.63a8.52,8.52,0,0,0,3-1.08C396.26,282.31,396,277.34,396.17,276.28Z" style="fill: rgb(0, 128, 128);" transform="matrix(1.089015007019043, 0, 0, 1.089015007019043, 49.72036978820131, 55.8785224899739)"/><path d="M 95.07427978515625 193.01715087890625" style="fill: rgb(55, 60, 122); fill-opacity: 1; stroke: rgb(0, 0, 0); stroke-opacity: 1; stroke-width: 0; paint-order: fill;"/></g></g></svg>